<svg width="128" height="128" viewBox="0 0 128 128" fill="none" xmlns="http://www.w3.org/2000/svg">
<rect width="128" height="128" rx="64" fill="black"/>
<path d="M103.484 36.9761L67.4837 16.1896C65.3147 14.9368 62.5037 14.9368 60.3284 16.1896L24.3339 36.9761C22.1275 38.2475 20.75 40.6223 20.75 43.1715V84.7382C20.75 87.2874 22.1275 89.6621 24.3339 90.9398L60.3284 111.72C61.4129 112.35 62.6533 112.68 63.9061 112.68C65.1588 112.68 66.3992 112.35 67.4837 111.72L103.484 90.9398C105.691 89.6621 107.062 87.2874 107.062 84.7382V43.1715C107.062 40.6223 105.691 38.2475 103.484 36.9761ZM100.605 82.5006L93.1691 77.2962C92.7952 77.0344 92.6456 76.5482 92.8014 76.1182L100.605 54.9764V82.5006ZM64.2613 106.129C64.0432 106.254 63.7689 106.254 63.557 106.129L62.6844 105.624L42.7145 81.0296C42.1784 80.3752 42.6459 79.3904 43.4936 79.3904H84.3185C85.1662 79.3904 85.6399 80.3752 85.1039 81.0296L65.1339 105.624L64.2613 106.129ZM27.2072 54.9764L35.0107 76.1182C35.1727 76.5482 35.0232 77.0344 34.643 77.2962L27.2072 82.5006V54.9764ZM64.7786 37.0135L86.2445 74.186C86.6309 74.8591 86.1448 75.7006 85.3719 75.7006H42.4465C41.6673 75.7006 41.1812 74.8591 41.5739 74.186L63.0335 37.0135C63.4199 36.3403 64.3922 36.3403 64.7786 37.0135ZM100.312 45.1224L90.6823 71.2005C90.3893 72.0045 89.2923 72.098 88.8685 71.3563L69.0107 36.9636C68.562 36.1845 69.285 35.2496 70.1576 35.4926L99.6388 43.8072C100.206 43.963 100.518 44.5739 100.312 45.1224ZM58.7764 37.0135L38.9498 71.3563C38.5198 72.098 37.4228 72.0045 37.1299 71.2005L27.5749 45.3156C27.3693 44.7671 27.6747 44.1563 28.2419 43.9942L57.6234 35.5425C58.496 35.287 59.2314 36.2281 58.7764 37.0135ZM36.3881 80.5746C36.8182 80.2755 37.4166 80.3565 37.7469 80.7679L53.7403 100.464L28.6594 85.9847L36.3881 80.5746ZM90.0652 80.7679C90.4018 80.3565 90.9939 80.2755 91.4302 80.5746L99.1527 85.9847L74.078 100.464L90.0652 80.7679ZM92.0722 37.8424L66.4864 30.6248C66.0501 30.5002 65.751 30.1075 65.751 29.6525V22.6468L92.0722 37.8424ZM62.0611 22.6468V29.665C62.0611 30.1137 61.7682 30.5126 61.3319 30.6373L35.1914 38.1603L62.0611 22.6468Z" fill="white"/>
</svg>
